<svg xmlns="http://www.w3.org/2000/svg" width="49" height="33" fill="none" viewBox="0 0 49 33">
  <g clip-path="url(#a)">
    <path fill="#767676" d="m15.061 16.35 9.463 7.434a.537.537 0 0 0 .869-.418V8.496a.537.537 0 0 0-.87-.417l-9.462 7.434a.53.53 0 0 0 0 .836Zm10.536 0 9.463 7.434c.352.277.87.026.87-.418V8.5a.537.537 0 0 0-.87-.418l-9.463 7.434a.53.53 0 0 0 0 .833ZM12.96 24.622h1.686c.115 0 .21-.088.21-.197V7.436c0-.108-.095-.197-.21-.197H12.96c-.115 0-.21.089-.21.197v16.99c0 .109.095.198.21.198Z"/>
  </g>
  <defs>
    <clipPath id="a">
      <path fill="#fff" d="M49 33H.5V0H49z"/>
    </clipPath>
  </defs>
</svg>
