<?xml version="1.0" encoding="UTF-8" standalone="no"?>
<svg
   version="1.1"
   width="1080"
   height="540"
   viewBox="331.67 135 1080 540"
   xml:space="preserve"
   id="svg14"
   sodipodi:docname="on.svg"
   inkscape:version="1.3.2 (091e20e, 2023-11-25, custom)"
   xmlns:inkscape="http://www.inkscape.org/namespaces/inkscape"
   xmlns:sodipodi="http://sodipodi.sourceforge.net/DTD/sodipodi-0.dtd"
   xmlns="http://www.w3.org/2000/svg"
   xmlns:svg="http://www.w3.org/2000/svg"><sodipodi:namedview
   id="namedview14"
   pagecolor="#505050"
   bordercolor="#eeeeee"
   borderopacity="1"
   inkscape:showpageshadow="0"
   inkscape:pageopacity="0"
   inkscape:pagecheckerboard="0"
   inkscape:deskcolor="#505050"
   inkscape:zoom="0.59444444"
   inkscape:cx="277.57009"
   inkscape:cy="133.73832"
   inkscape:window-width="1920"
   inkscape:window-height="1017"
   inkscape:window-x="-8"
   inkscape:window-y="-8"
   inkscape:window-maximized="1"
   inkscape:current-layer="svg14" />
<desc
   id="desc1">Created with Fabric.js 5.2.4</desc>
<defs
   id="defs1">
</defs>
<rect
   x="0"
   y="0"
   width="100%"
   height="100%"
   fill="transparent"
   id="rect1" />
<g
   transform="matrix(1 0 0 1 540 270)"
   id="7697cc74-f843-4145-9ad1-2c5ae0b3e866">
<rect
   style="stroke: none; stroke-width: 1; stroke-dasharray: none; stroke-linecap: butt; stroke-dashoffset: 0; stroke-linejoin: miter; stroke-miterlimit: 4; fill: rgb(255,255,255); fill-rule: nonzero; opacity: 1; visibility: hidden;"
   vector-effect="non-scaling-stroke"
   x="-540"
   y="-270"
   rx="0"
   ry="0"
   width="1080"
   height="540"
   id="rect2" />
</g>
<g
   transform="matrix(0 0 0 0 0 0)"
   id="c74eb9bf-78e9-4966-aa88-1a8cb73a5538">
</g>
<g
   transform="matrix(-26.98 0 0 -26.98 874.8 399.85)"
   id="svg_19"
   style="fill:#48a114;fill-opacity:1">
<rect
   style="stroke:rgb(51, 51, 51);stroke-width:0;stroke-dasharray:none;stroke-linecap:butt;stroke-dashoffset:0;stroke-linejoin:miter;stroke-miterlimit:4;fill:#48a114;fill-rule:nonzero;opacity:1;fill-opacity:1"
   vector-effect="non-scaling-stroke"
   x="-11.14"
   y="-9.25"
   rx="0"
   ry="0"
   width="22.28"
   height="18.5"
   id="rect3" />
</g>
<g
   transform="matrix(-26.98 0 0 -26.98 1171.1 400.37)"
   id="svg_20">
<ellipse
   style="stroke: rgb(51,51,51); stroke-width: 0; stroke-dasharray: none; stroke-linecap: butt; stroke-dashoffset: 0; stroke-linejoin: miter; stroke-miterlimit: 4; fill: rgb(51,51,51); fill-rule: nonzero; opacity: 1;"
   vector-effect="non-scaling-stroke"
   cx="0"
   cy="0"
   rx="8.91504"
   ry="9.1852"
   id="ellipse3" />
</g>
<g
   transform="matrix(-26.98 0 0 -26.98 578.67 400.38)"
   id="svg_22"
   style="fill:#48a114;fill-opacity:1">
<ellipse
   style="stroke:rgb(51, 51, 51);stroke-width:0;stroke-dasharray:none;stroke-linecap:butt;stroke-dashoffset:0;stroke-linejoin:miter;stroke-miterlimit:4;fill:#48a114;fill-rule:nonzero;opacity:1;fill-opacity:1"
   vector-effect="non-scaling-stroke"
   cx="0"
   cy="0"
   rx="8.91504"
   ry="9.1852"
   id="ellipse4" />
</g>
<g
   transform="matrix(4.08 0 0 4.97 1178.03 413.44)"
   id="g4"
   style="fill:#48a114;fill-opacity:1">
<path
   style="stroke:rgb(113, 110, 110);stroke-width:0;stroke-dasharray:none;stroke-linecap:butt;stroke-dashoffset:0;stroke-linejoin:miter;stroke-miterlimit:4;fill:#48a114;fill-rule:nonzero;opacity:1;fill-opacity:1"
   vector-effect="non-scaling-stroke"
   transform=" translate(-50, -50)"
   d="M 14.148 44.105 L 18.091 40.162 C 20.01 38.242 23.176000000000002 38.242 25.096 40.162 L 42.164 57.230999999999995 L 74.904 24.440999999999995 C 76.823 22.521999999999995 79.98899999999999 22.521999999999995 81.90899999999999 24.440999999999995 L 85.851 28.383999999999997 C 87.771 30.302999999999997 87.771 33.415 85.851 35.334999999999994 L 45.641 75.54499999999999 L 45.537 75.64899999999999 L 45.433 75.75299999999999 L 45.329 75.80499999999999 L 45.277 75.90899999999999 L 45.173 75.961 L 45.069 76.065 L 44.965 76.117 L 44.861000000000004 76.16900000000001 L 44.757000000000005 76.27400000000002 L 44.653000000000006 76.32400000000001 L 44.54900000000001 76.37800000000001 L 44.44500000000001 76.43000000000002 L 44.34100000000001 76.48200000000003 L 44.23700000000001 76.53400000000003 L 44.08000000000001 76.58600000000004 L 43.97600000000001 76.63800000000005 L 43.872000000000014 76.69000000000005 L 43.768000000000015 76.74200000000006 L 43.664000000000016 76.74200000000006 L 43.56000000000002 76.79400000000007 L 43.405000000000015 76.84700000000007 L 43.301000000000016 76.84700000000007 L 43.19700000000002 76.89900000000007 L 42.93800000000002 76.89900000000007 L 42.83400000000002 76.95100000000008 L 42.62600000000002 76.95100000000008 L 42.47100000000002 77.00300000000009 L 41.795000000000016 77.00300000000009 L 41.640000000000015 76.95100000000008 L 41.432000000000016 76.95100000000008 L 41.32800000000002 76.89900000000007 L 41.06900000000002 76.89900000000007 L 40.96500000000002 76.84700000000007 L 40.86100000000002 76.84700000000007 L 40.70600000000002 76.79400000000007 L 40.60200000000002 76.74200000000006 L 40.49800000000002 76.74200000000006 L 40.39400000000002 76.69000000000005 L 40.29000000000002 76.63800000000005 L 40.185000000000024 76.58600000000004 L 40.081000000000024 76.53400000000003 L 40.029000000000025 76.53400000000003 C 39.563000000000024 76.32500000000003 39.096000000000025 75.96200000000003 38.630000000000024 75.54800000000003 L 14.140000000000025 51.059000000000026 C 12.229 49.137 12.229 46.025 14.148 44.105 z"
   stroke-linecap="round"
   id="path4" />
</g>
<g
   transform="matrix(NaN NaN NaN NaN 0 0)"
   id="g6">
<g
   style=""
   id="g5">
</g>
</g>
<g
   transform="matrix(NaN NaN NaN NaN 0 0)"
   id="g8">
<g
   style=""
   id="g7">
</g>
</g>
<g
   transform="matrix(NaN NaN NaN NaN 0 0)"
   id="g10">
<g
   style=""
   id="g9">
</g>
</g>
<g
   transform="matrix(NaN NaN NaN NaN 0 0)"
   id="g12">
<g
   style=""
   id="g11">
</g>
</g>
<g
   transform="matrix(NaN NaN NaN NaN 0 0)"
   id="g14">
<g
   style=""
   id="g13">
</g>
</g>
</svg>
