<svg xmlns="http://www.w3.org/2000/svg" width="49" height="33" fill="none" viewBox="0 0 49 33">
  <g clip-path="url(#a)">
    <path fill="#767676" d="m32.738 16.65-9.462-7.434a.537.537 0 0 0-.87.418v14.87c0 .444.517.694.87.418l9.462-7.435a.53.53 0 0 0 0-.836Zm-10.536 0L12.74 9.217a.537.537 0 0 0-.869.418V24.5c0 .445.517.695.87.418l9.462-7.434a.53.53 0 0 0 0-.833ZM34.84 8.377h-1.686c-.115 0-.21.09-.21.198v16.99c0 .108.095.197.21.197h1.686c.115 0 .21-.089.21-.197V8.574c0-.109-.095-.198-.21-.198Z"/>
  </g>
  <defs>
    <clipPath id="a">
      <path fill="#fff" d="M0 0h48.5v33H0z"/>
    </clipPath>
  </defs>
</svg>
