<?xml version="1.0" encoding="UTF-8" standalone="no"?>
<!-- Created with Inkscape (http://www.inkscape.org/) -->

<svg
   width="100mm"
   height="100mm"
   viewBox="0 0 100 100"
   version="1.1"
   id="svg1"
   inkscape:version="1.3.2 (091e20e, 2023-11-25, custom)"
   sodipodi:docname="resizeSVG.svg"
   xmlns:inkscape="http://www.inkscape.org/namespaces/inkscape"
   xmlns:sodipodi="http://sodipodi.sourceforge.net/DTD/sodipodi-0.dtd"
   xmlns="http://www.w3.org/2000/svg"
   xmlns:svg="http://www.w3.org/2000/svg">
  <sodipodi:namedview
     id="namedview1"
     pagecolor="#505050"
     bordercolor="#eeeeee"
     borderopacity="1"
     inkscape:showpageshadow="0"
     inkscape:pageopacity="0"
     inkscape:pagecheckerboard="0"
     inkscape:deskcolor="#505050"
     inkscape:document-units="mm"
     inkscape:zoom="1.4627806"
     inkscape:cx="104.59532"
     inkscape:cy="167.14742"
     inkscape:window-width="1920"
     inkscape:window-height="1017"
     inkscape:window-x="-8"
     inkscape:window-y="-8"
     inkscape:window-maximized="1"
     inkscape:current-layer="svg1" />
  <defs
     id="defs1" />
  <g
     inkscape:label="Lag 1"
     inkscape:groupmode="layer"
     id="layer1" />
  <path
     style="fill:#2e2e2e;fill-opacity:1;stroke:#2e2e2e;stroke-width:2.69602;stroke-opacity:1"
     d="M 40.169186,49.144199 C 39.960638,48.855946 35.092602,43.727704 29.35133,37.7481 L 18.912648,26.876103 14.995063,30.954396 C 12.840392,33.19746 10.02419,36.097961 8.7368351,37.399949 L 6.3961893,39.767208 4.9798575,21.842075 C 4.2008753,11.983249 3.6473372,3.8348567 3.7497726,3.734536 3.8522073,3.634216 11.546137,4.2738184 20.847395,5.1558757 30.14865,6.037933 37.928179,6.7588339 38.135238,6.7578798 c 0.207054,-9.563e-4 -1.621059,1.8827214 -4.062478,4.1859492 -2.441423,2.303226 -5.533598,5.224416 -6.8715,6.491533 l -2.432552,2.30385 11.945542,10.437065 11.945551,10.43706 -0.517504,0.660235 c -1.561493,1.99215 -7.184777,8.394719 -7.372959,8.394719 -0.121537,0 -0.391607,-0.23584 -0.600152,-0.524092 z"
     id="path14" />
  <path
     style="fill:#2e2e2e;fill-opacity:1;stroke:#2e2e2e;stroke-width:2.69602;stroke-opacity:1"
     d="m 79.055728,93.942168 c -9.066113,-0.90192 -16.563059,-1.717425 -16.65988,-1.812247 -0.09681,-0.09482 1.384114,-1.739468 3.290956,-3.654776 7.096791,-7.128298 8.669846,-8.783114 8.669846,-9.120452 0,-0.355088 -3.65699,-3.63506 -16.186113,-14.517383 -3.945228,-3.426676 -7.173138,-6.309281 -7.173138,-6.405791 0,-0.09651 1.723738,-2.188602 3.830529,-4.649095 l 3.830533,-4.473627 0.928666,0.932891 c 0.510768,0.513089 5.394649,5.600653 10.85307,11.305695 5.458422,5.705041 10.030134,10.411678 10.159362,10.459189 0.12923,0.04751 3.021282,-2.970215 6.42678,-6.706061 3.405502,-3.735843 6.235668,-6.758361 6.289257,-6.716703 0.09828,0.07639 2.63857,34.832251 2.652012,36.284433 0.0038,0.429832 -0.0907,0.766268 -0.210398,0.74764 -0.119695,-0.01862 -7.635364,-0.771801 -16.701482,-1.673713 z"
     id="path15" />
</svg>
